<svg width="392" height="392" viewBox="0 0 392 392" fill="none" xmlns="http://www.w3.org/2000/svg">
<path d="M196 335.207C279.953 335.207 348.01 331.233 348.01 326.332C348.01 321.43 279.953 317.457 196 317.457C112.047 317.457 43.9902 321.43 43.9902 326.332C43.9902 331.233 112.047 335.207 196 335.207Z" fill="#1E5631"/>
<path d="M300.163 313.011H281.347V312.227H300.163C302.376 312.181 304.538 311.551 306.428 310.4C308.319 309.249 309.871 307.618 310.927 305.673L311.617 306.049C310.493 308.118 308.841 309.852 306.829 311.075C304.817 312.298 302.517 312.966 300.163 313.011Z" fill="#E87421"/>
<path d="M277.623 312.229H269.917V313.013H277.623V312.229Z" fill="#E87421"/>
<path d="M300.163 310.269H80.0161C78.8091 310.292 77.6109 310.058 76.5012 309.583C75.3915 309.108 74.3956 308.402 73.5799 307.512C72.7641 306.622 72.1471 305.569 71.7699 304.422C71.3927 303.275 71.2639 302.061 71.3921 300.861L83.2854 164.445C83.5513 161.906 84.7324 159.551 86.6081 157.82C88.4837 156.088 90.9255 155.099 93.4774 155.037H313.625C314.831 155.014 316.029 155.249 317.138 155.725C318.247 156.2 319.242 156.906 320.058 157.796C320.873 158.686 321.49 159.739 321.868 160.885C322.246 162.031 322.375 163.244 322.249 164.445L310.426 300.861C310.158 303.411 308.967 305.776 307.077 307.509C305.186 309.242 302.727 310.223 300.163 310.269Z" fill="#E87421"/>
<path d="M295.577 307.407H80.9176C79.8899 307.422 78.8706 307.219 77.9277 306.81C76.9847 306.4 76.1396 305.795 75.4484 305.035C74.7573 304.274 74.236 303.375 73.9192 302.397C73.6023 301.419 73.4972 300.385 73.6108 299.363L84.4456 175.091C84.5104 174.469 84.8002 173.891 85.2606 173.466C85.7211 173.042 86.3206 172.8 86.9466 172.786H313.029C313.324 172.781 313.616 172.839 313.887 172.956C314.158 173.073 314.401 173.246 314.6 173.464C314.799 173.682 314.949 173.94 315.04 174.221C315.132 174.501 315.162 174.798 315.13 175.091L304.287 299.363C304.067 301.536 303.06 303.554 301.456 305.035C299.851 306.517 297.76 307.361 295.577 307.407Z" fill="white"/>
<path d="M108.279 166.6C106.798 166.626 105.329 166.335 103.969 165.749C102.609 165.163 101.389 164.295 100.39 163.201C99.3912 162.107 98.6365 160.814 98.176 159.406C97.7155 157.998 97.5596 156.509 97.7188 155.036C98.0411 151.911 99.4937 149.011 101.804 146.882C104.114 144.752 107.122 143.54 110.263 143.472C111.743 143.447 113.212 143.737 114.572 144.323C115.932 144.909 117.152 145.778 118.15 146.872C119.148 147.966 119.902 149.259 120.362 150.667C120.821 152.075 120.976 153.564 120.815 155.036H116.111C116.206 154.162 116.114 153.278 115.84 152.442C115.567 151.606 115.118 150.838 114.525 150.19C113.932 149.541 113.207 149.025 112.399 148.678C111.591 148.331 110.719 148.16 109.839 148.176C107.972 148.21 106.182 148.927 104.807 150.191C103.432 151.455 102.567 153.178 102.376 155.036C102.281 155.91 102.374 156.795 102.647 157.63C102.921 158.466 103.369 159.234 103.962 159.883C104.556 160.532 105.28 161.047 106.088 161.394C106.896 161.741 107.769 161.912 108.648 161.896L108.279 166.6Z" fill="#1E5631"/>
<path d="M154.81 166.6C153.326 166.63 151.853 166.343 150.489 165.759C149.125 165.175 147.901 164.307 146.899 163.213C145.897 162.119 145.14 160.824 144.677 159.414C144.215 158.004 144.058 156.511 144.218 155.036C144.54 151.911 145.993 149.011 148.303 146.882C150.613 144.752 153.621 143.54 156.762 143.472C158.242 143.447 159.711 143.737 161.071 144.323C162.431 144.909 163.651 145.778 164.649 146.872C165.647 147.966 166.401 149.259 166.861 150.667C167.32 152.075 167.475 153.564 167.314 155.036H162.61C162.705 154.162 162.613 153.278 162.339 152.442C162.066 151.606 161.617 150.838 161.024 150.19C160.431 149.541 159.706 149.025 158.898 148.678C158.09 148.331 157.218 148.16 156.338 148.176C154.471 148.21 152.681 148.927 151.306 150.191C149.931 151.455 149.066 153.178 148.875 155.036C148.781 155.91 148.875 156.794 149.149 157.629C149.423 158.464 149.871 159.232 150.464 159.88C151.057 160.529 151.781 161.044 152.589 161.392C153.396 161.739 154.268 161.911 155.147 161.896L154.81 166.6Z" fill="#1E5631"/>
<path d="M201.34 166.6C199.86 166.624 198.392 166.334 197.032 165.747C195.673 165.16 194.454 164.291 193.456 163.198C192.458 162.104 191.704 160.811 191.244 159.404C190.784 157.997 190.628 156.508 190.788 155.036C191.107 151.91 192.558 149.008 194.869 146.878C197.179 144.748 200.19 143.536 203.332 143.472C204.812 143.447 206.281 143.737 207.641 144.323C209.001 144.909 210.22 145.778 211.219 146.872C212.217 147.966 212.971 149.259 213.43 150.667C213.89 152.075 214.045 153.564 213.884 155.036H209.18C209.276 154.162 209.185 153.277 208.912 152.441C208.639 151.604 208.19 150.836 207.597 150.187C207.003 149.538 206.278 149.022 205.469 148.676C204.661 148.329 203.788 148.159 202.908 148.176C201.042 148.211 199.253 148.928 197.879 150.192C196.505 151.456 195.642 153.179 195.452 155.036C195.358 155.91 195.45 156.795 195.724 157.63C195.997 158.466 196.446 159.234 197.039 159.883C197.632 160.532 198.357 161.047 199.165 161.394C199.973 161.741 200.845 161.912 201.724 161.896L201.34 166.6Z" fill="#1E5631"/>
<path d="M247.87 166.6C246.39 166.624 244.922 166.333 243.563 165.747C242.203 165.16 240.984 164.291 239.986 163.198C238.988 162.104 238.234 160.811 237.774 159.404C237.314 157.997 237.159 156.508 237.318 155.036C237.638 151.91 239.091 149.01 241.401 146.88C243.711 144.75 246.72 143.538 249.862 143.472C251.343 143.447 252.812 143.737 254.172 144.323C255.532 144.909 256.752 145.778 257.751 146.872C258.75 147.965 259.505 149.259 259.965 150.666C260.426 152.074 260.582 153.564 260.422 155.036H255.718C255.813 154.162 255.721 153.278 255.447 152.442C255.174 151.606 254.725 150.838 254.132 150.19C253.539 149.541 252.814 149.025 252.006 148.678C251.198 148.331 250.325 148.16 249.446 148.176C247.58 148.211 245.791 148.928 244.417 150.192C243.043 151.456 242.18 153.179 241.99 155.036C241.896 155.91 241.988 156.795 242.262 157.63C242.535 158.466 242.984 159.234 243.577 159.883C244.17 160.532 244.895 161.047 245.703 161.394C246.511 161.741 247.383 161.912 248.262 161.896L247.87 166.6Z" fill="#1E5631"/>
<path d="M294.401 166.6C292.921 166.624 291.452 166.333 290.093 165.747C288.734 165.16 287.515 164.291 286.517 163.198C285.519 162.104 284.765 160.811 284.305 159.404C283.845 157.997 283.689 156.508 283.848 155.036C284.169 151.91 285.621 149.01 287.931 146.88C290.241 144.75 293.251 143.538 296.392 143.472C297.873 143.447 299.342 143.737 300.703 144.323C302.063 144.909 303.283 145.778 304.281 146.872C305.28 147.965 306.035 149.259 306.495 150.666C306.956 152.074 307.112 153.564 306.953 155.036H302.249C302.343 154.162 302.251 153.278 301.977 152.442C301.704 151.606 301.255 150.838 300.662 150.19C300.069 149.541 299.344 149.025 298.536 148.678C297.728 148.331 296.856 148.16 295.977 148.176C294.111 148.212 292.322 148.93 290.949 150.194C289.575 151.457 288.712 153.18 288.521 155.036C288.426 155.91 288.518 156.795 288.792 157.63C289.066 158.466 289.514 159.234 290.107 159.883C290.701 160.532 291.425 161.047 292.233 161.394C293.041 161.741 293.914 161.912 294.793 161.896L294.401 166.6Z" fill="#1E5631"/>
<path d="M295.012 301.77H82.8072C82.757 301.772 82.7071 301.762 82.6609 301.743C82.6147 301.723 82.5733 301.693 82.5397 301.656C82.5061 301.619 82.4811 301.574 82.4664 301.526C82.4516 301.478 82.4475 301.428 82.4544 301.378L93.0306 180.125C93.0403 180.018 93.0889 179.92 93.167 179.847C93.2452 179.775 93.3474 179.734 93.4539 179.733H305.651C305.702 179.731 305.752 179.741 305.799 179.76C305.845 179.78 305.887 179.809 305.921 179.846C305.955 179.884 305.981 179.928 305.997 179.976C306.012 180.024 306.018 180.074 306.012 180.125L295.436 301.378C295.426 301.484 295.378 301.583 295.299 301.655C295.221 301.728 295.119 301.769 295.012 301.77ZM83.2698 300.986H294.683L305.197 180.517H93.7832L83.2698 300.986Z" fill="#A1A1AA"/>
<path d="M297.098 277.519H84.924C84.8741 277.52 84.8248 277.51 84.7792 277.489C84.7337 277.469 84.6929 277.44 84.6595 277.403C84.6262 277.366 84.6011 277.322 84.5859 277.275C84.5706 277.227 84.5656 277.177 84.5712 277.127C84.5791 277.021 84.6272 276.921 84.7057 276.848C84.7843 276.775 84.8875 276.735 84.9945 276.735H297.192C297.242 276.734 297.293 276.743 297.339 276.763C297.386 276.783 297.427 276.812 297.462 276.849C297.496 276.886 297.522 276.931 297.537 276.979C297.553 277.027 297.558 277.077 297.553 277.127C297.539 277.238 297.485 277.339 297.401 277.411C297.317 277.484 297.209 277.522 297.098 277.519Z" fill="#A1A1AA"/>
<path d="M299.238 253.271H87.0407C86.9906 253.272 86.941 253.261 86.8951 253.241C86.8491 253.221 86.8079 253.192 86.774 253.155C86.74 253.118 86.7141 253.075 86.698 253.027C86.6818 252.98 86.6757 252.929 86.6801 252.879C86.6916 252.773 86.7418 252.674 86.8213 252.602C86.9007 252.529 87.0039 252.489 87.1113 252.487H299.309C299.359 252.486 299.409 252.495 299.456 252.515C299.502 252.535 299.544 252.564 299.578 252.601C299.613 252.638 299.638 252.682 299.654 252.73C299.67 252.778 299.675 252.829 299.669 252.879C299.656 252.986 299.606 253.083 299.526 253.155C299.447 253.227 299.345 253.269 299.238 253.271Z" fill="#A1A1AA"/>
<path d="M301.355 229.015H89.1575C89.107 229.017 89.0568 229.007 89.0103 228.988C88.9638 228.968 88.922 228.939 88.8878 228.902C88.8537 228.864 88.8278 228.82 88.8121 228.772C88.7965 228.724 88.7912 228.674 88.7969 228.623C88.81 228.517 88.8607 228.419 88.9398 228.347C89.0189 228.276 89.1212 228.234 89.2281 228.231H301.426C301.475 228.231 301.525 228.241 301.57 228.262C301.616 228.282 301.657 228.311 301.69 228.348C301.723 228.385 301.748 228.429 301.764 228.476C301.779 228.524 301.784 228.574 301.778 228.623C301.77 228.73 301.722 228.83 301.644 228.903C301.565 228.975 301.462 229.016 301.355 229.015Z" fill="#A1A1AA"/>
<path d="M303.472 204.765H91.2742C91.2237 204.766 91.1736 204.757 91.127 204.737C91.0805 204.717 91.0387 204.688 91.0045 204.651C90.9704 204.614 90.9445 204.57 90.9289 204.522C90.9132 204.474 90.9079 204.423 90.9136 204.373C90.9233 204.267 90.9719 204.168 91.05 204.095C91.1282 204.023 91.2304 203.982 91.3369 203.981H303.542C303.592 203.979 303.642 203.988 303.689 204.008C303.735 204.028 303.776 204.057 303.81 204.095C303.843 204.132 303.868 204.176 303.883 204.224C303.898 204.272 303.902 204.323 303.895 204.373C303.887 204.479 303.839 204.579 303.76 204.652C303.682 204.725 303.579 204.765 303.472 204.765Z" fill="#A1A1AA"/>
<path d="M268.482 301.77C268.432 301.772 268.382 301.762 268.336 301.743C268.289 301.723 268.248 301.693 268.214 301.656C268.181 301.619 268.156 301.574 268.141 301.526C268.126 301.478 268.122 301.428 268.129 301.378L278.705 180.125C278.715 180.018 278.764 179.92 278.842 179.847C278.92 179.775 279.022 179.734 279.129 179.733C279.179 179.731 279.229 179.741 279.276 179.76C279.322 179.78 279.364 179.809 279.398 179.846C279.432 179.884 279.458 179.928 279.474 179.976C279.49 180.024 279.495 180.074 279.489 180.125L268.913 301.378C268.902 301.485 268.851 301.584 268.772 301.656C268.692 301.728 268.589 301.769 268.482 301.77Z" fill="#A1A1AA"/>
<path d="M241.959 301.77C241.909 301.771 241.858 301.762 241.812 301.742C241.765 301.723 241.724 301.693 241.689 301.656C241.655 301.619 241.629 301.575 241.614 301.527C241.598 301.479 241.593 301.428 241.599 301.378L252.175 180.125C252.186 180.018 252.236 179.919 252.316 179.847C252.395 179.775 252.499 179.734 252.606 179.733C252.656 179.731 252.706 179.74 252.752 179.76C252.798 179.78 252.84 179.809 252.873 179.847C252.907 179.884 252.932 179.928 252.947 179.976C252.961 180.024 252.966 180.075 252.959 180.125L242.383 301.378C242.375 301.485 242.327 301.585 242.248 301.657C242.169 301.73 242.066 301.77 241.959 301.77Z" fill="#A1A1AA"/>
<path d="M215.436 301.77C215.386 301.771 215.336 301.762 215.289 301.742C215.243 301.723 215.201 301.693 215.167 301.656C215.133 301.619 215.107 301.575 215.091 301.527C215.075 301.479 215.07 301.428 215.076 301.378L225.652 180.125C225.663 180.018 225.714 179.919 225.793 179.847C225.873 179.775 225.976 179.734 226.083 179.733C226.133 179.731 226.183 179.74 226.23 179.76C226.276 179.78 226.317 179.809 226.351 179.847C226.384 179.884 226.409 179.928 226.424 179.976C226.439 180.024 226.443 180.075 226.436 180.125L215.86 301.378C215.85 301.484 215.802 301.583 215.723 301.655C215.645 301.728 215.543 301.769 215.436 301.77Z" fill="#A1A1AA"/>
<path d="M188.906 301.77C188.855 301.771 188.805 301.762 188.759 301.742C188.712 301.723 188.67 301.693 188.636 301.656C188.602 301.619 188.576 301.575 188.56 301.527C188.545 301.479 188.54 301.428 188.545 301.378L199.098 180.125C199.107 180.018 199.156 179.92 199.234 179.847C199.312 179.775 199.415 179.734 199.521 179.733C199.572 179.731 199.622 179.741 199.668 179.76C199.715 179.78 199.757 179.809 199.791 179.846C199.825 179.884 199.851 179.928 199.867 179.976C199.882 180.024 199.887 180.074 199.882 180.125L189.337 301.378C189.327 301.485 189.277 301.585 189.198 301.658C189.118 301.73 189.014 301.77 188.906 301.77Z" fill="#A1A1AA"/>
<path d="M162.383 301.77C162.333 301.772 162.283 301.762 162.237 301.743C162.191 301.723 162.149 301.693 162.116 301.656C162.082 301.619 162.057 301.574 162.042 301.526C162.028 301.478 162.023 301.428 162.03 301.378L172.607 180.125C172.614 180.018 172.663 179.918 172.741 179.845C172.82 179.773 172.923 179.732 173.03 179.733C173.08 179.731 173.131 179.741 173.177 179.76C173.224 179.78 173.265 179.809 173.3 179.846C173.334 179.884 173.36 179.928 173.375 179.976C173.391 180.024 173.396 180.074 173.391 180.125L162.814 301.378C162.803 301.485 162.753 301.584 162.673 301.656C162.594 301.728 162.491 301.769 162.383 301.77Z" fill="#A1A1AA"/>
<path d="M135.86 301.77C135.81 301.771 135.76 301.762 135.713 301.742C135.667 301.723 135.625 301.693 135.591 301.656C135.556 301.619 135.531 301.575 135.515 301.527C135.499 301.479 135.494 301.428 135.5 301.378L146.076 180.125C146.087 180.018 146.138 179.919 146.217 179.847C146.296 179.775 146.4 179.734 146.507 179.733C146.557 179.731 146.607 179.74 146.653 179.76C146.7 179.78 146.741 179.809 146.774 179.847C146.808 179.884 146.833 179.928 146.848 179.976C146.863 180.024 146.867 180.075 146.86 180.125L136.284 301.378C136.276 301.485 136.228 301.585 136.149 301.657C136.071 301.73 135.967 301.77 135.86 301.77Z" fill="#A1A1AA"/>
<path d="M109.338 301.77C109.287 301.771 109.237 301.762 109.19 301.742C109.144 301.723 109.102 301.693 109.068 301.656C109.034 301.619 109.008 301.575 108.992 301.527C108.977 301.479 108.971 301.428 108.977 301.378L119.553 180.125C119.565 180.018 119.615 179.919 119.694 179.847C119.774 179.775 119.877 179.734 119.984 179.733C120.035 179.731 120.085 179.74 120.131 179.76C120.177 179.78 120.218 179.809 120.252 179.847C120.286 179.884 120.311 179.928 120.325 179.976C120.34 180.024 120.344 180.075 120.337 180.125L109.761 301.378C109.751 301.484 109.703 301.583 109.625 301.655C109.546 301.728 109.444 301.769 109.338 301.77Z" fill="#A1A1AA"/>
<path d="M329.94 226.199H312.903L314.589 206.795H331.633L325.228 216.501L329.94 226.199Z" fill="white"/>
<path d="M330.575 226.592H312.472L314.236 206.404H332.378L325.722 216.502L330.575 226.592ZM313.327 225.808H329.297L324.773 216.502L330.919 207.188H314.949L313.327 225.808Z" fill="#E87421"/>
<path d="M298.705 201.951H255.679C255.358 201.958 255.039 201.895 254.743 201.769C254.448 201.642 254.183 201.453 253.966 201.216C253.749 200.978 253.586 200.697 253.486 200.391C253.387 200.085 253.354 199.762 253.39 199.442L254.644 185.056C254.711 184.377 255.026 183.746 255.527 183.284C256.029 182.821 256.683 182.559 257.365 182.547H300.399C300.72 182.542 301.038 182.605 301.333 182.732C301.628 182.86 301.892 183.048 302.109 183.285C302.325 183.523 302.489 183.803 302.589 184.108C302.689 184.414 302.722 184.737 302.688 185.056L301.433 199.442C301.366 200.123 301.051 200.754 300.548 201.217C300.044 201.68 299.389 201.941 298.705 201.951Z" fill="#E87421"/>
</svg>
