<svg width="26" height="32" viewBox="0 0 26 32" fill="none" xmlns="http://www.w3.org/2000/svg">
<path d="M12.9544 21.5658L10.8555 18.568M12.9544 21.5658C10.7734 21.5658 8.77562 20.8076 7.22814 19.549M12.9544 21.5658C14.728 21.5658 16.3804 21.0644 17.7681 20.2002M10.8555 18.568L7.22814 19.549M10.8555 18.568L11.8821 15.7686M7.22814 19.549C5.90744 18.4749 4.91469 17.0364 4.41585 15.3939M11.8821 15.7686L9.76046 12.7488M11.8821 15.7686L15.4639 14.8869M9.76046 12.7488H6.63498M9.76046 12.7488L12.1331 9.97141M6.63498 12.7488L4.41585 15.3939M6.63498 12.7488L4.69229 9.77303M4.41585 15.3939C4.18232 14.6249 4.05703 13.8112 4.05703 12.9692C4.05703 11.8397 4.28249 10.7611 4.69229 9.77303M4.69229 9.77303C5.3833 8.10701 6.59847 6.69858 8.14069 5.73817M12.1331 9.97141L11.2433 6.88546M12.1331 9.97141L15.6464 11.2058M11.2433 6.88546L8.14069 5.73817M11.2433 6.88546L13.4563 4.38605M8.14069 5.73817C9.52832 4.87403 11.1807 4.37261 12.9544 4.37261C13.1228 4.37261 13.2902 4.37713 13.4563 4.38605M13.4563 4.38605C15.3576 4.48821 17.0997 5.16719 18.4981 6.24487M15.6464 11.2058L18.384 9.55261M15.6464 11.2058L15.4639 14.8869M18.384 9.55261L18.4981 6.24487M18.384 9.55261L21.5505 10.7429M18.4981 6.24487C19.9639 7.37451 21.0522 8.94225 21.5505 10.7429M21.5505 10.7429C21.747 11.453 21.8517 12.1993 21.8517 12.9692C21.8517 14.0376 21.65 15.0604 21.2814 16.0041M15.4639 14.8869L17.9278 16.8487M17.9278 16.8487L17.7681 20.2002M17.9278 16.8487L21.2814 16.0041M17.7681 20.2002C19.3598 19.209 20.6031 17.7405 21.2814 16.0041M12.9544 31C12.9544 31 25 23.9022 25 12.9692C25 5.73817 19.7021 0.975319 12.9544 1.0001C6.23144 1.02478 1 5.32965 1 12.9692C0.999996 24.7398 12.9544 31 12.9544 31Z" stroke="#E87421"/>
</svg>
