<svg width="392" height="392" viewBox="0 0 392 392" fill="none" xmlns="http://www.w3.org/2000/svg">
<path d="M82.9153 329.164C145.097 360.312 245.903 360.312 308.085 329.164C370.267 298.017 370.259 247.514 308.085 216.367C245.91 185.219 145.097 185.219 82.9153 216.367C20.7335 247.514 20.7406 298.017 82.9153 329.164Z" fill="#1E5631"/>
<path d="M128 183.699V307.09L254.288 234.173V122L160.383 176.216L157.138 166.872L128 183.699Z" fill="#E87421"/>
<path d="M128 307.09L134.475 194.91L260.763 122L254.288 234.173L128 307.09Z" fill="#E5E7EB"/>
<path d="M128 307.09L137.713 196.784L264 123.867L254.288 234.173L128 307.09Z" fill="#E87421"/>
</svg>
